<svg width="40" height="42" viewBox="0 0 40 42" fill="none" xmlns="http://www.w3.org/2000/svg">
<path d="M31.7969 0.861267H8.20312C3.67981 0.861267 0 5.35037 0 10.8685V26.9702C0 32.4883 3.67981 36.9774 8.20312 36.9774H9.42047L12.2736 41.3932C12.496 41.7372 12.8351 41.9378 13.194 41.9378C13.5529 41.9378 13.8922 41.7372 14.1144 41.3932L16.9675 36.9774H31.7969C36.3202 36.9774 40 32.4883 40 26.9702V10.8685C40 5.35037 36.3202 0.861267 31.7969 0.861267V0.861267Z" fill="#6787F5"/>
<path d="M31.7969 0.861267H20V36.9774H31.7969C36.3202 36.9774 40 32.4883 40 26.9702V10.8685C40 5.35037 36.3202 0.861267 31.7969 0.861267Z" fill="#38478A"/>
<path d="M15.6061 39.0846L16.9674 36.9774L15.6061 39.0846Z" fill="white"/>
<path d="M40 12.6082H30.1468L37.4814 3.66054C36.0059 1.92826 34.0018 0.861267 31.7969 0.861267H29.8325L25.1752 6.54283V0.861267H14.8251V6.54283L10.1678 0.861267H8.20312C5.99823 0.861267 3.99414 1.92826 2.51862 3.66054L9.85321 12.6082H0V25.2345H9.85321L2.79388 33.846L2.52014 34.18C3.99567 35.9115 5.99915 36.9774 8.20312 36.9774H9.42047L9.75128 37.4893L14.6994 31.4526L14.6191 36.9774H25.1749V31.3156L29.8007 36.9774H31.7969C33.9914 36.9774 35.9872 35.9208 37.4606 34.2027L37.1848 33.8646L30.134 25.2345H40V12.6082Z" fill="white"/>
<path d="M40 12.6082H30.1468L37.4814 3.66054C36.0059 1.92826 34.0018 0.861267 31.7969 0.861267H29.8325L25.1752 6.54283V0.861267H20V36.9774H25.1749V31.3156L29.8007 36.9774H31.7969C33.9914 36.9774 35.9872 35.9208 37.4606 34.2027L37.1848 33.8647L30.134 25.2345H40V12.6082Z" fill="#C7D3ED"/>
<path d="M22.8311 15.4674V0.861267H17.1689V15.4674H0V22.3753H17.1689L16.9675 36.9774H22.8311V22.3753H40V15.4674H22.8311Z" fill="#FF337A"/>
<path d="M22.8311 15.4674V0.861267H20V36.9774H22.8311V22.3753H40V15.4674H22.8311Z" fill="#D1005B"/>
<path d="M15.6061 13.5609V11.5394L6.94881 0.978149C6.06104 1.14494 5.21967 1.48633 4.4491 1.97217L13.949 13.5609H15.6061Z" fill="#FF337A"/>
<path d="M35.5509 1.97217C34.7803 1.48633 33.939 1.14494 33.0512 0.978149L24.3939 11.5394V13.5609H26.051L35.5509 1.97217Z" fill="#D1005B"/>
<path d="M4.45129 35.868C5.22217 36.3535 6.06354 36.6945 6.9516 36.8613L15.6061 26.303V24.2815H13.949L4.45129 35.868Z" fill="#FF337A"/>
<path d="M24.3939 24.2815V26.309L33.0188 36.8665C33.9084 36.7034 34.7519 36.3661 35.5246 35.8833L26.0464 24.2815H24.3939Z" fill="#D1005B"/>
</svg>
