<svg width="100" height="100" viewBox="0 0 100 100" fill="none" xmlns="http://www.w3.org/2000/svg">
<path d="M36.5385 21.6667C35.4765 21.6667 34.6154 22.4129 34.6154 23.3334V31.6667H28.8462C27.7842 31.6667 26.9231 32.4129 26.9231 33.3334V76.6667C26.9231 77.5871 27.7842 78.3333 28.8462 78.3333H34.6154V85C34.6154 85.9204 35.4765 86.6667 36.5385 86.6667C37.6005 86.6667 38.4616 85.9204 38.4616 85V78.3333H44.2308C45.2928 78.3333 46.1539 77.5871 46.1539 76.6667V33.3334C46.1539 32.4129 45.2928 31.6667 44.2308 31.6667H38.4616V23.3334C38.4616 22.4129 37.6005 21.6667 36.5385 21.6667ZM42.3077 35V75H30.7692V35H42.3077Z" fill="#D00B10"/>
<path d="M63.4616 15C62.3996 15 61.5385 15.7463 61.5385 16.6667V25H55.7693C54.7073 25 53.8462 25.7463 53.8462 26.6667V70C53.8462 70.9204 54.7073 71.6667 55.7693 71.6667H61.5385V78.3333C61.5385 79.2537 62.3996 80 63.4616 80C64.5236 80 65.3847 79.2537 65.3847 78.3333V71.6667H71.1539C72.2159 71.6667 73.077 70.9204 73.077 70V26.6667C73.077 25.7463 72.2159 25 71.1539 25H65.3847V16.6667C65.3847 15.7463 64.5236 15 63.4616 15ZM69.2308 28.3333V68.3333H57.6923V28.3333H69.2308Z" fill="#D00B10"/>
<path d="M90.3846 35C89.3225 35 88.4615 35.7463 88.4615 36.6667V45H82.6922C81.6302 45 80.7692 45.7463 80.7692 46.6667V90C80.7692 90.9204 81.6302 91.6667 82.6922 91.6667H88.4615V98.3333C88.4615 99.2537 89.3225 100 90.3846 100C91.4466 100 92.3076 99.2537 92.3076 98.3333V91.6667H98.0769C99.1389 91.6667 99.9999 90.9204 99.9999 90V46.6667C99.9999 45.7463 99.1389 45 98.0769 45H92.3076V36.6667C92.3076 35.7463 91.4466 35 90.3846 35ZM96.1538 48.3333V88.3333H84.6153V48.3333H96.1538Z" fill="#D00B10"/>
<path d="M9.61539 0C8.55337 0 7.69231 0.746256 7.69231 1.66667V10H1.92308C0.861065 10 0 10.7463 0 11.6667V55C0 55.9204 0.861065 56.6667 1.92308 56.6667H7.69231V63.3333C7.69231 64.2537 8.55337 65 9.61539 65C10.6774 65 11.5385 64.2537 11.5385 63.3333V56.6667H17.3077C18.3697 56.6667 19.2308 55.9204 19.2308 55V11.6667C19.2308 10.7463 18.3697 10 17.3077 10H11.5385V1.66667C11.5385 0.746256 10.6774 0 9.61539 0ZM15.3846 13.3333V53.3333H3.84615V13.3333H15.3846Z" fill="#D00B10"/>
</svg>
