<svg width="153" height="159" viewBox="0 0 153 159" fill="none" xmlns="http://www.w3.org/2000/svg">
<ellipse cx="5" cy="6.21094" rx="5" ry="6.21094" fill="#DAA520" fill-opacity="0.5"/>
<ellipse cx="20" cy="6.21094" rx="5" ry="6.21094" fill="#DAA520" fill-opacity="0.5"/>
<ellipse cx="35" cy="6.21094" rx="5" ry="6.21094" fill="#DAA520" fill-opacity="0.5"/>
<ellipse cx="51" cy="6.21094" rx="5" ry="6.21094" fill="#DAA520" fill-opacity="0.5"/>
<ellipse cx="68" cy="6.21094" rx="5" ry="6.21094" fill="#DAA520" fill-opacity="0.5"/>
<ellipse cx="5" cy="23.6016" rx="5" ry="6.21094" fill="#DAA520" fill-opacity="0.5"/>
<ellipse cx="20" cy="23.6016" rx="5" ry="6.21094" fill="#DAA520" fill-opacity="0.5"/>
<ellipse cx="35" cy="23.6016" rx="5" ry="6.21094" fill="#DAA520" fill-opacity="0.5"/>
<ellipse cx="51" cy="23.6016" rx="5" ry="6.21094" fill="#DAA520" fill-opacity="0.5"/>
<ellipse cx="68" cy="23.6016" rx="5" ry="6.21094" fill="#DAA520" fill-opacity="0.5"/>
<ellipse cx="5" cy="40.9922" rx="5" ry="6.21094" fill="#DAA520" fill-opacity="0.5"/>
<ellipse cx="20" cy="40.9922" rx="5" ry="6.21094" fill="#DAA520" fill-opacity="0.5"/>
<ellipse cx="35" cy="40.9922" rx="5" ry="6.21094" fill="#DAA520" fill-opacity="0.5"/>
<ellipse cx="51" cy="40.9922" rx="5" ry="6.21094" fill="#DAA520" fill-opacity="0.5"/>
<ellipse cx="68" cy="40.9922" rx="5" ry="6.21094" fill="#DAA520" fill-opacity="0.5"/>
<ellipse cx="5" cy="57.1406" rx="5" ry="6.21094" fill="#DAA520" fill-opacity="0.5"/>
<ellipse cx="20" cy="57.1406" rx="5" ry="6.21094" fill="#DAA520" fill-opacity="0.5"/>
<ellipse cx="35" cy="57.1406" rx="5" ry="6.21094" fill="#DAA520" fill-opacity="0.5"/>
<ellipse cx="51" cy="57.1406" rx="5" ry="6.21094" fill="#DAA520" fill-opacity="0.5"/>
<ellipse cx="68" cy="57.1406" rx="5" ry="6.21094" fill="#DAA520" fill-opacity="0.5"/>
<ellipse cx="5" cy="73.2891" rx="5" ry="6.21094" fill="#DAA520" fill-opacity="0.5"/>
<ellipse cx="20" cy="73.2891" rx="5" ry="6.21094" fill="#DAA520" fill-opacity="0.5"/>
<ellipse cx="35" cy="73.2891" rx="5" ry="6.21094" fill="#DAA520" fill-opacity="0.5"/>
<ellipse cx="51" cy="73.2891" rx="5" ry="6.21094" fill="#DAA520" fill-opacity="0.5"/>
<ellipse cx="68" cy="73.2891" rx="5" ry="6.21094" fill="#DAA520" fill-opacity="0.5"/>
<ellipse cx="85" cy="73.2891" rx="5" ry="6.21094" fill="#DAA520" fill-opacity="0.5"/>
<ellipse cx="100" cy="73.2891" rx="5" ry="6.21094" fill="#DAA520" fill-opacity="0.5"/>
<ellipse cx="115" cy="73.2891" rx="5" ry="6.21094" fill="#DAA520" fill-opacity="0.5"/>
<ellipse cx="117" cy="72.0469" rx="5" ry="6.21094" fill="#DAA520" fill-opacity="0.5"/>
<ellipse cx="131" cy="73.2891" rx="5" ry="6.21094" fill="#DAA520" fill-opacity="0.5"/>
<ellipse cx="148" cy="73.2891" rx="5" ry="6.21094" fill="#DAA520" fill-opacity="0.5"/>
<ellipse cx="85" cy="57.1406" rx="5" ry="6.21094" fill="#DAA520" fill-opacity="0.5"/>
<ellipse cx="100" cy="57.1406" rx="5" ry="6.21094" fill="#DAA520" fill-opacity="0.5"/>
<ellipse cx="115" cy="57.1406" rx="5" ry="6.21094" fill="#DAA520" fill-opacity="0.5"/>
<ellipse cx="131" cy="57.1406" rx="5" ry="6.21094" fill="#DAA520" fill-opacity="0.5"/>
<ellipse cx="148" cy="57.1406" rx="5" ry="6.21094" fill="#DAA520" fill-opacity="0.5"/>
<ellipse cx="85" cy="40.9922" rx="5" ry="6.21094" fill="#DAA520" fill-opacity="0.5"/>
<ellipse cx="100" cy="40.9922" rx="5" ry="6.21094" fill="#DAA520" fill-opacity="0.5"/>
<ellipse cx="115" cy="40.9922" rx="5" ry="6.21094" fill="#DAA520" fill-opacity="0.5"/>
<ellipse cx="131" cy="40.9922" rx="5" ry="6.21094" fill="#DAA520" fill-opacity="0.5"/>
<ellipse cx="148" cy="40.9922" rx="5" ry="6.21094" fill="#DAA520" fill-opacity="0.5"/>
<ellipse cx="85" cy="23.6016" rx="5" ry="6.21094" fill="#DAA520" fill-opacity="0.5"/>
<ellipse cx="100" cy="23.6016" rx="5" ry="6.21094" fill="#DAA520" fill-opacity="0.5"/>
<ellipse cx="115" cy="23.6016" rx="5" ry="6.21094" fill="#DAA520" fill-opacity="0.5"/>
<ellipse cx="131" cy="23.6016" rx="5" ry="6.21094" fill="#DAA520" fill-opacity="0.5"/>
<ellipse cx="148" cy="23.6016" rx="5" ry="6.21094" fill="#DAA520" fill-opacity="0.5"/>
<ellipse cx="85" cy="6.21094" rx="5" ry="6.21094" fill="#DAA520" fill-opacity="0.5"/>
<ellipse cx="100" cy="6.21094" rx="5" ry="6.21094" fill="#DAA520" fill-opacity="0.5"/>
<ellipse cx="115" cy="6.21094" rx="5" ry="6.21094" fill="#DAA520" fill-opacity="0.5"/>
<ellipse cx="131" cy="6.21094" rx="5" ry="6.21094" fill="#DAA520" fill-opacity="0.5"/>
<ellipse cx="148" cy="6.21094" rx="5" ry="6.21094" fill="#DAA520" fill-opacity="0.5"/>
<ellipse cx="5" cy="85.7109" rx="5" ry="6.21094" fill="#DAA520" fill-opacity="0.5"/>
<ellipse cx="20" cy="85.7109" rx="5" ry="6.21094" fill="#DAA520" fill-opacity="0.5"/>
<ellipse cx="35" cy="85.7109" rx="5" ry="6.21094" fill="#DAA520" fill-opacity="0.5"/>
<ellipse cx="51" cy="85.7109" rx="5" ry="6.21094" fill="#DAA520" fill-opacity="0.5"/>
<ellipse cx="68" cy="85.7109" rx="5" ry="6.21094" fill="#DAA520" fill-opacity="0.5"/>
<ellipse cx="5" cy="103.102" rx="5" ry="6.21094" fill="#DAA520" fill-opacity="0.5"/>
<ellipse cx="20" cy="103.102" rx="5" ry="6.21094" fill="#DAA520" fill-opacity="0.5"/>
<ellipse cx="35" cy="103.102" rx="5" ry="6.21094" fill="#DAA520" fill-opacity="0.5"/>
<ellipse cx="51" cy="103.102" rx="5" ry="6.21094" fill="#DAA520" fill-opacity="0.5"/>
<ellipse cx="68" cy="103.102" rx="5" ry="6.21094" fill="#DAA520" fill-opacity="0.5"/>
<ellipse cx="5" cy="120.492" rx="5" ry="6.21094" fill="#DAA520" fill-opacity="0.5"/>
<ellipse cx="20" cy="120.492" rx="5" ry="6.21094" fill="#DAA520" fill-opacity="0.5"/>
<ellipse cx="35" cy="120.492" rx="5" ry="6.21094" fill="#DAA520" fill-opacity="0.5"/>
<ellipse cx="51" cy="120.492" rx="5" ry="6.21094" fill="#DAA520" fill-opacity="0.5"/>
<ellipse cx="68" cy="120.492" rx="5" ry="6.21094" fill="#DAA520" fill-opacity="0.5"/>
<ellipse cx="5" cy="136.641" rx="5" ry="6.21094" fill="#DAA520" fill-opacity="0.5"/>
<ellipse cx="20" cy="136.641" rx="5" ry="6.21094" fill="#DAA520" fill-opacity="0.5"/>
<ellipse cx="35" cy="136.641" rx="5" ry="6.21094" fill="#DAA520" fill-opacity="0.5"/>
<ellipse cx="51" cy="136.641" rx="5" ry="6.21094" fill="#DAA520" fill-opacity="0.5"/>
<ellipse cx="68" cy="136.641" rx="5" ry="6.21094" fill="#DAA520" fill-opacity="0.5"/>
<ellipse cx="5" cy="152.789" rx="5" ry="6.21094" fill="#DAA520" fill-opacity="0.5"/>
<ellipse cx="20" cy="152.789" rx="5" ry="6.21094" fill="#DAA520" fill-opacity="0.5"/>
<ellipse cx="35" cy="152.789" rx="5" ry="6.21094" fill="#DAA520" fill-opacity="0.5"/>
<ellipse cx="51" cy="152.789" rx="5" ry="6.21094" fill="#DAA520" fill-opacity="0.5"/>
<ellipse cx="68" cy="152.789" rx="5" ry="6.21094" fill="#DAA520" fill-opacity="0.5"/>
<ellipse cx="85" cy="152.789" rx="5" ry="6.21094" fill="#DAA520" fill-opacity="0.5"/>
<ellipse cx="100" cy="152.789" rx="5" ry="6.21094" fill="#DAA520" fill-opacity="0.5"/>
<ellipse cx="115" cy="152.789" rx="5" ry="6.21094" fill="#DAA520" fill-opacity="0.5"/>
<ellipse cx="117" cy="151.547" rx="5" ry="6.21094" fill="#DAA520" fill-opacity="0.5"/>
<ellipse cx="131" cy="152.789" rx="5" ry="6.21094" fill="#DAA520" fill-opacity="0.5"/>
<ellipse cx="148" cy="152.789" rx="5" ry="6.21094" fill="#DAA520" fill-opacity="0.5"/>
<ellipse cx="85" cy="136.641" rx="5" ry="6.21094" fill="#DAA520" fill-opacity="0.5"/>
<ellipse cx="100" cy="136.641" rx="5" ry="6.21094" fill="#DAA520" fill-opacity="0.5"/>
<ellipse cx="115" cy="136.641" rx="5" ry="6.21094" fill="#DAA520" fill-opacity="0.5"/>
<ellipse cx="131" cy="136.641" rx="5" ry="6.21094" fill="#DAA520" fill-opacity="0.5"/>
<ellipse cx="148" cy="136.641" rx="5" ry="6.21094" fill="#DAA520" fill-opacity="0.5"/>
<ellipse cx="85" cy="120.492" rx="5" ry="6.21094" fill="#DAA520" fill-opacity="0.5"/>
<ellipse cx="100" cy="120.492" rx="5" ry="6.21094" fill="#DAA520" fill-opacity="0.5"/>
<ellipse cx="115" cy="120.492" rx="5" ry="6.21094" fill="#DAA520" fill-opacity="0.5"/>
<ellipse cx="131" cy="120.492" rx="5" ry="6.21094" fill="#DAA520" fill-opacity="0.5"/>
<ellipse cx="148" cy="120.492" rx="5" ry="6.21094" fill="#DAA520" fill-opacity="0.5"/>
<ellipse cx="85" cy="103.102" rx="5" ry="6.21094" fill="#DAA520" fill-opacity="0.5"/>
<ellipse cx="100" cy="103.102" rx="5" ry="6.21094" fill="#DAA520" fill-opacity="0.5"/>
<ellipse cx="115" cy="103.102" rx="5" ry="6.21094" fill="#DAA520" fill-opacity="0.5"/>
<ellipse cx="131" cy="103.102" rx="5" ry="6.21094" fill="#DAA520" fill-opacity="0.5"/>
<ellipse cx="148" cy="103.102" rx="5" ry="6.21094" fill="#DAA520" fill-opacity="0.5"/>
<ellipse cx="85" cy="85.7109" rx="5" ry="6.21094" fill="#DAA520" fill-opacity="0.5"/>
<ellipse cx="100" cy="85.7109" rx="5" ry="6.21094" fill="#DAA520" fill-opacity="0.5"/>
<ellipse cx="115" cy="85.7109" rx="5" ry="6.21094" fill="#DAA520" fill-opacity="0.5"/>
<ellipse cx="131" cy="85.7109" rx="5" ry="6.21094" fill="#DAA520" fill-opacity="0.5"/>
<ellipse cx="148" cy="85.7109" rx="5" ry="6.21094" fill="#DAA520" fill-opacity="0.5"/>
</svg>
