<svg width="694" height="576" viewBox="0 0 694 576" fill="none" xmlns="http://www.w3.org/2000/svg">
<g filter="url(#filter0_d)">
<path d="M322.106 568C471.681 568 592.936 561.857 592.936 554.28C592.936 546.703 471.681 540.56 322.106 540.56C172.531 540.56 51.2758 546.703 51.2758 554.28C51.2758 561.857 172.531 568 322.106 568Z" fill="#F2F2F2"/>
<path d="M480.337 131.823H477.26V48.326C477.26 35.5092 472.121 23.2173 462.972 14.1544C453.824 5.0915 441.416 1.41508e-05 428.478 0H249.91C236.972 -2.42583e-05 224.564 5.09142 215.416 14.1543C206.268 23.2171 201.128 35.509 201.128 48.3259V506.399C201.128 519.216 206.268 531.508 215.416 540.57C224.564 549.633 236.972 554.725 249.91 554.725H428.478C441.416 554.725 453.824 549.633 462.972 540.571C472.12 531.508 477.26 519.216 477.26 506.399V191.258H480.337L480.337 131.823Z" fill="#3F3D56"/>
<path d="M466.877 48.6633V506.062C466.877 515.634 463.039 524.814 456.206 531.582C449.374 538.351 440.108 542.153 430.446 542.153H251.021C241.359 542.153 232.092 538.351 225.26 531.582C218.428 524.814 214.59 515.634 214.589 506.062V48.6633C214.59 39.0914 218.428 29.9116 225.26 23.1433C232.092 16.3749 241.359 12.5724 251.021 12.5723H272.787C271.718 15.176 271.31 18.0002 271.601 20.7964C271.892 23.5927 272.872 26.2753 274.455 28.6083C276.038 30.9413 278.175 32.8532 280.679 34.1759C283.183 35.4985 285.976 36.1913 288.814 36.1934H391.114C393.951 36.1913 396.745 35.4985 399.249 34.1758C401.753 32.8532 403.89 30.9413 405.473 28.6083C407.056 26.2753 408.036 23.5926 408.327 20.7964C408.617 18.0002 408.21 15.176 407.14 12.5723H430.446C440.108 12.5724 449.374 16.3749 456.206 23.1433C463.038 29.9116 466.877 39.0914 466.877 48.6633Z" fill="white"/>
<path d="M409.075 245.892C407.882 246.509 406.669 247.093 405.435 247.645C404.312 248.148 403.171 248.62 402.012 249.062C401.588 249.222 401.158 249.383 400.727 249.543C397.32 250.767 393.821 251.722 390.263 252.401C388.501 252.744 386.716 253.013 384.908 253.209C383.415 253.377 381.907 253.496 380.384 253.567C379.299 253.62 378.214 253.643 377.121 253.643C372.795 253.645 368.477 253.244 364.226 252.447C363.118 252.249 362.034 252.012 360.949 251.753C355.701 250.507 350.621 248.65 345.814 246.219C345.384 246.006 344.953 245.777 344.522 245.556C343.883 245.221 343.26 244.87 342.637 244.504C342.937 244.093 343.26 243.689 343.591 243.292C347.191 238.872 351.691 235.254 356.798 232.672C361.904 230.09 367.503 228.603 373.228 228.308C378.953 228.014 384.677 228.917 390.026 230.961C395.376 233.004 400.23 236.141 404.274 240.167C405.677 241.563 406.978 243.055 408.167 244.634C408.482 245.046 408.782 245.465 409.075 245.892Z" fill="#D00B10"/>
<path d="M378.657 212.41C397.316 212.41 412.441 197.425 412.441 178.941C412.441 160.457 397.316 145.472 378.657 145.472C359.998 145.472 344.873 160.457 344.873 178.941C344.873 197.425 359.998 212.41 378.657 212.41Z" fill="#2F2E41"/>
<path d="M387.643 212.457C399.828 205.858 404.306 190.723 397.645 178.651C390.984 166.58 375.706 162.143 363.521 168.742C351.335 175.341 346.857 190.476 353.518 202.548C360.179 214.619 375.457 219.056 387.643 212.457Z" fill="#A0616A"/>
<path d="M402.003 174.931C396.257 178.854 389.437 180.942 382.459 180.915C384.948 182.625 387.782 183.78 390.765 184.3C381.487 186.272 371.897 186.325 362.597 184.457C360.53 184.129 358.535 183.45 356.701 182.451C355.786 181.945 354.99 181.254 354.363 180.423C353.736 179.593 353.292 178.64 353.061 177.628C352.443 174.131 355.194 170.953 358.053 168.812C362.43 165.583 367.477 163.359 372.828 162.299C378.18 161.24 383.702 161.372 388.996 162.686C392.452 163.572 395.915 165.067 398.16 167.817C400.405 170.567 401.07 174.806 398.931 177.638L402.003 174.931Z" fill="#2F2E41"/>
<path d="M377.121 116.444C362.02 116.442 347.331 121.331 335.295 130.367C323.259 139.403 314.535 152.089 310.453 166.493C306.37 180.897 307.154 196.228 312.684 210.149C318.214 224.071 328.187 235.82 341.083 243.605L341.529 243.864C341.898 244.085 342.268 244.298 342.637 244.504C343.26 244.87 343.883 245.221 344.522 245.556C344.953 245.777 345.384 246.006 345.814 246.219C350.621 248.65 355.701 250.507 360.949 251.753C362.034 252.012 363.118 252.248 364.226 252.447C368.477 253.244 372.795 253.645 377.121 253.643C378.214 253.643 379.299 253.62 380.384 253.567C381.907 253.498 383.415 253.379 384.908 253.209C386.716 253.011 388.501 252.741 390.263 252.401C393.821 251.722 397.32 250.766 400.727 249.542C401.158 249.382 401.588 249.222 402.012 249.062C403.173 248.62 404.315 248.148 405.435 247.645C406.667 247.096 407.88 246.511 409.075 245.891C421.053 239.677 430.952 230.153 437.573 218.475C437.604 218.414 437.643 218.353 437.674 218.292C441.206 212.012 443.712 205.218 445.098 198.161C447.045 188.228 446.75 177.991 444.235 168.183C441.72 158.376 437.047 149.24 430.551 141.431C424.055 133.622 415.897 127.332 406.66 123.013C397.423 118.693 387.336 116.45 377.121 116.444H377.121ZM436.412 217.4C436.35 217.506 436.296 217.613 436.235 217.712C429.746 229.219 419.985 238.581 408.167 244.634C406.99 245.244 405.792 245.815 404.574 246.349C403.566 246.798 402.535 247.225 401.496 247.622C401.057 247.789 400.612 247.957 400.165 248.109C397.222 249.174 394.206 250.03 391.14 250.671C388.866 251.15 386.567 251.509 384.254 251.745C382.83 251.898 381.384 252.004 379.93 252.058C378.999 252.096 378.06 252.119 377.121 252.119C372.934 252.124 368.756 251.738 364.642 250.968C362.139 250.51 359.665 249.91 357.232 249.169C353.527 248.035 349.926 246.589 346.468 244.847C346.068 244.641 345.668 244.436 345.276 244.222C344.714 243.925 344.145 243.62 343.591 243.292C343.175 243.064 342.76 242.82 342.352 242.576C342.113 242.439 341.875 242.294 341.636 242.149C330.33 235.27 321.31 225.254 315.697 213.344C310.085 201.433 308.125 188.152 310.062 175.148C311.999 162.144 317.747 149.99 326.593 140.193C335.439 130.396 346.994 123.387 359.825 120.037C372.655 116.687 386.196 117.142 398.768 121.346C411.339 125.55 422.389 133.317 430.544 143.686C438.7 154.054 443.604 166.566 444.647 179.67C445.69 192.774 442.826 205.893 436.412 217.4H436.412Z" fill="#3F3D56"/>
<path d="M361.548 145.934C361.185 142.147 356.502 139.816 352.84 140.96C349.178 142.104 346.774 145.756 346.047 149.491C345.698 151.064 345.665 152.69 345.951 154.276C346.237 155.861 346.836 157.375 347.713 158.731C349.564 161.37 352.966 163.017 356.138 162.347C359.76 161.582 362.269 158.079 362.987 154.48C363.705 150.882 362.992 147.171 362.28 143.571L361.548 145.934Z" fill="#2F2E41"/>
<path d="M413.085 151.343C412.721 147.557 408.039 145.226 404.377 146.369C400.715 147.513 398.311 151.166 397.584 154.901C397.234 156.474 397.201 158.1 397.487 159.685C397.773 161.271 398.372 162.785 399.25 164.141C401.101 166.78 404.502 168.427 407.675 167.757C411.297 166.992 413.806 163.489 414.524 159.89C415.241 156.291 414.529 152.581 413.817 148.981L413.085 151.343Z" fill="#2F2E41"/>
<path d="M257.43 212.46C256.951 212.459 256.477 212.36 256.039 212.167C255.601 211.975 255.208 211.695 254.886 211.343L216.707 170.082C216.273 169.615 215.747 169.242 215.161 168.986C214.575 168.731 213.941 168.599 213.301 168.598H11.5482C8.48648 168.594 5.55115 167.388 3.38618 165.243C1.22122 163.099 0.00343753 160.191 0 157.157V85.0803C0.00343549 82.0472 1.22122 79.1393 3.38618 76.9946C5.55115 74.8498 8.48648 73.6434 11.5482 73.64H272.934C275.996 73.6434 278.931 74.8498 281.096 76.9946C283.261 79.1393 284.479 82.0472 284.482 85.0803V157.158C284.479 160.191 283.261 163.099 281.096 165.243C278.931 167.388 275.996 168.594 272.934 168.598H265.524C264.299 168.599 263.124 169.082 262.258 169.94C261.392 170.798 260.905 171.961 260.904 173.175V209.024C260.907 209.716 260.697 210.393 260.303 210.964C259.908 211.536 259.348 211.974 258.695 212.222C258.292 212.379 257.863 212.459 257.43 212.46Z" fill="white"/>
<path d="M257.43 212.46C256.951 212.459 256.477 212.36 256.039 212.167C255.601 211.975 255.208 211.695 254.886 211.343L216.707 170.082C216.273 169.615 215.747 169.242 215.161 168.986C214.575 168.731 213.941 168.599 213.301 168.598H11.5482C8.48648 168.594 5.55115 167.388 3.38618 165.243C1.22122 163.099 0.00343753 160.191 0 157.157V85.0803C0.00343549 82.0472 1.22122 79.1393 3.38618 76.9946C5.55115 74.8498 8.48648 73.6434 11.5482 73.64H272.934C275.996 73.6434 278.931 74.8498 281.096 76.9946C283.261 79.1393 284.479 82.0472 284.482 85.0803V157.158C284.479 160.191 283.261 163.099 281.096 165.243C278.931 167.388 275.996 168.594 272.934 168.598H265.524C264.299 168.599 263.124 169.082 262.258 169.94C261.392 170.798 260.905 171.961 260.904 173.175V209.024C260.907 209.716 260.697 210.393 260.303 210.964C259.908 211.536 259.348 211.974 258.695 212.222C258.292 212.379 257.863 212.459 257.43 212.46ZM11.5482 75.1644C8.89446 75.1674 6.35027 76.2131 4.47379 78.072C2.59732 79.931 1.5418 82.4514 1.53881 85.0803V157.158C1.54181 159.786 2.59733 162.307 4.4738 164.166C6.35028 166.025 8.89446 167.07 11.5482 167.073H213.301C214.155 167.074 214.999 167.251 215.78 167.591C216.562 167.932 217.263 168.429 217.841 169.052L256.02 210.313C256.282 210.596 256.625 210.795 257.003 210.882C257.38 210.969 257.776 210.941 258.137 210.802C258.499 210.663 258.81 210.418 259.029 210.101C259.248 209.784 259.365 209.409 259.365 209.024V173.175C259.367 171.557 260.016 170.006 261.171 168.862C262.325 167.719 263.891 167.075 265.524 167.073H272.934C275.588 167.07 278.132 166.025 280.008 164.166C281.885 162.307 282.94 159.786 282.943 157.158V85.0803C282.94 82.4514 281.885 79.931 280.008 78.072C278.132 76.2131 275.588 75.1674 272.934 75.1644H11.5482Z" fill="#3F3D56"/>
<path d="M28.3264 105.435C33.9074 105.435 38.4316 100.953 38.4316 95.4247C38.4316 89.8959 33.9074 85.4139 28.3264 85.4139C22.7455 85.4139 18.2213 89.8959 18.2213 95.4247C18.2213 100.953 22.7455 105.435 28.3264 105.435Z" fill="#D00B10"/>
<path d="M261.145 150.817H23.3376C22.6293 150.818 21.9278 150.681 21.2731 150.413C20.6185 150.145 20.0236 149.752 19.5225 149.256C19.0214 148.76 18.6238 148.171 18.3526 147.523C18.0813 146.875 17.9417 146.18 17.9417 145.478C17.9417 144.777 18.0813 144.082 18.3526 143.434C18.6238 142.786 19.0214 142.197 19.5225 141.701C20.0236 141.205 20.6185 140.812 21.2731 140.544C21.9278 140.276 22.6293 140.138 23.3376 140.139H261.145C262.573 140.141 263.942 140.704 264.952 141.705C265.961 142.706 266.528 144.063 266.528 145.478C266.528 146.893 265.961 148.25 264.952 149.251C263.942 150.252 262.573 150.816 261.145 150.817Z" fill="#E6E6E6"/>
<path d="M183.672 128.126H23.3376C22.6293 128.127 21.9278 127.99 21.2731 127.722C20.6185 127.454 20.0236 127.061 19.5225 126.565C19.0214 126.069 18.6238 125.48 18.3526 124.832C18.0813 124.184 17.9417 123.489 17.9417 122.787C17.9417 122.086 18.0813 121.391 18.3526 120.743C18.6238 120.094 19.0214 119.506 19.5225 119.01C20.0236 118.514 20.6185 118.121 21.2731 117.853C21.9278 117.585 22.6293 117.447 23.3376 117.448H183.672C185.102 117.448 186.472 118.011 187.483 119.012C188.494 120.013 189.062 121.371 189.062 122.787C189.062 124.203 188.494 125.561 187.483 126.563C186.472 127.564 185.102 128.126 183.672 128.126Z" fill="#E6E6E6"/>
<path d="M427.07 456.894C426.418 456.646 425.858 456.207 425.463 455.636C425.069 455.065 424.859 454.388 424.862 453.696V417.847C424.861 416.633 424.374 415.47 423.507 414.612C422.641 413.754 421.467 413.271 420.242 413.27H412.832C409.77 413.266 406.835 412.06 404.67 409.915C402.505 407.77 401.287 404.862 401.284 401.829V329.752C401.287 326.719 402.505 323.811 404.67 321.666C406.835 319.522 409.77 318.315 412.832 318.312H674.218C677.279 318.315 680.215 319.522 682.38 321.666C684.545 323.811 685.762 326.719 685.766 329.752V401.829C685.762 404.862 684.545 407.77 682.38 409.915C680.215 412.06 677.279 413.266 674.218 413.27H472.465C471.824 413.27 471.191 413.403 470.605 413.658C470.019 413.914 469.492 414.287 469.059 414.754L430.88 456.015C430.557 456.366 430.165 456.647 429.727 456.839C429.289 457.031 428.815 457.131 428.336 457.131C427.903 457.131 427.474 457.051 427.07 456.894Z" fill="white"/>
<path d="M427.07 456.894C426.418 456.646 425.858 456.207 425.463 455.636C425.069 455.065 424.859 454.388 424.862 453.696V417.847C424.861 416.633 424.374 415.47 423.507 414.612C422.641 413.754 421.467 413.271 420.242 413.27H412.832C409.77 413.266 406.835 412.06 404.67 409.915C402.505 407.77 401.287 404.862 401.284 401.829V329.752C401.287 326.719 402.505 323.811 404.67 321.666C406.835 319.522 409.77 318.315 412.832 318.312H674.218C677.279 318.315 680.215 319.522 682.38 321.666C684.545 323.811 685.762 326.719 685.766 329.752V401.829C685.762 404.862 684.545 407.77 682.38 409.915C680.215 412.06 677.279 413.266 674.218 413.27H472.465C471.824 413.27 471.191 413.403 470.605 413.658C470.019 413.914 469.492 414.287 469.059 414.754L430.88 456.015C430.557 456.366 430.165 456.647 429.727 456.839C429.289 457.031 428.815 457.131 428.336 457.131C427.903 457.131 427.474 457.051 427.07 456.894ZM412.832 319.836C410.178 319.839 407.634 320.885 405.757 322.744C403.881 324.603 402.825 327.123 402.822 329.752V401.829C402.825 404.458 403.881 406.979 405.757 408.838C407.634 410.697 410.178 411.742 412.832 411.745H420.242C421.875 411.747 423.44 412.391 424.595 413.534C425.75 414.678 426.399 416.229 426.401 417.847V453.696C426.401 454.081 426.518 454.456 426.737 454.773C426.956 455.09 427.267 455.334 427.628 455.474C427.99 455.613 428.385 455.641 428.763 455.554C429.141 455.467 429.484 455.268 429.746 454.985L467.925 413.724C468.503 413.101 469.204 412.604 469.986 412.263C470.767 411.923 471.611 411.746 472.465 411.745H674.218C676.871 411.742 679.416 410.697 681.292 408.838C683.169 406.979 684.224 404.458 684.227 401.829V329.752C684.224 327.123 683.169 324.603 681.292 322.744C679.416 320.885 676.871 319.839 674.218 319.836H412.832Z" fill="#3F3D56"/>
<path d="M345.599 479.214C334.88 486.014 322.461 489.722 309.734 489.922C297.008 490.123 284.476 486.808 273.544 480.35C275.467 476.803 277.904 473.555 280.777 470.708C285.209 466.295 290.604 462.948 296.546 460.924C302.488 458.9 308.82 458.252 315.054 459.03C321.289 459.808 327.26 461.991 332.51 465.412C337.759 468.833 342.148 473.401 345.337 478.764C345.422 478.909 345.514 479.061 345.599 479.214Z" fill="#D00B10"/>
<path d="M306.563 442.764C325.346 442.764 340.572 427.68 340.572 409.073C340.572 390.466 325.346 375.382 306.563 375.382C287.781 375.382 272.554 390.466 272.554 409.073C272.554 427.68 287.781 442.764 306.563 442.764Z" fill="#2F2E41"/>
<path d="M331.869 432.837C338.574 420.685 334.066 405.449 321.8 398.807C309.534 392.164 294.154 396.63 287.449 408.781C280.744 420.933 285.252 436.169 297.518 442.812C309.784 449.454 325.164 444.989 331.869 432.837Z" fill="#FFB8B8"/>
<path d="M283.062 405.037C288.846 408.986 295.712 411.088 302.736 411.06C300.231 412.782 297.378 413.944 294.375 414.468C303.715 416.453 313.368 416.507 322.73 414.626C324.811 414.296 326.819 413.612 328.666 412.606C329.586 412.097 330.388 411.402 331.019 410.566C331.65 409.729 332.097 408.771 332.33 407.752C332.952 404.231 330.182 401.033 327.305 398.877C322.898 395.627 317.818 393.387 312.431 392.321C307.044 391.255 301.485 391.388 296.156 392.711C292.677 393.602 289.191 395.107 286.931 397.875C284.671 400.644 284.001 404.911 286.155 407.762L283.062 405.037Z" fill="#2F2E41"/>
<path d="M308.644 490.693C291.989 490.688 275.893 484.734 263.311 473.923C250.728 463.112 242.501 448.17 240.14 431.836C237.779 415.502 241.442 398.873 250.456 384.999C259.47 371.124 273.232 360.934 289.217 356.298C305.202 351.663 322.338 352.892 337.482 359.76C352.626 366.629 364.763 378.676 371.666 393.692C378.569 408.709 379.775 425.687 375.063 441.514C370.352 457.34 360.039 470.953 346.015 479.855C334.863 486.939 321.892 490.701 308.644 490.693ZM308.644 355.018C295.251 355.017 282.159 358.95 271.022 366.321C259.886 373.691 251.206 384.168 246.08 396.426C240.954 408.683 239.612 422.172 242.225 435.185C244.837 448.198 251.287 460.151 260.757 469.533C270.227 478.915 282.294 485.304 295.429 487.892C308.565 490.48 322.181 489.151 334.554 484.073C346.927 478.995 357.503 470.396 364.943 459.364C372.383 448.332 376.353 435.361 376.352 422.093C376.332 404.31 369.192 387.261 356.499 374.686C343.805 362.111 326.595 355.038 308.644 355.018Z" fill="#3F3D56"/>
<path d="M433.802 349.345C439.383 349.345 443.907 344.863 443.907 339.334C443.907 333.805 439.383 329.323 433.802 329.323C428.221 329.323 423.697 333.805 423.697 339.334C423.697 344.863 428.221 349.345 433.802 349.345Z" fill="#D00B10"/>
<path d="M666.621 394.727H428.813C428.105 394.728 427.404 394.59 426.749 394.322C426.094 394.054 425.499 393.661 424.998 393.165C424.497 392.67 424.1 392.081 423.828 391.433C423.557 390.784 423.418 390.09 423.418 389.388C423.418 388.686 423.557 387.991 423.828 387.343C424.1 386.695 424.497 386.106 424.998 385.61C425.499 385.114 426.094 384.721 426.749 384.453C427.404 384.185 428.105 384.048 428.813 384.049H666.621C668.05 384.049 669.421 384.611 670.432 385.613C671.442 386.614 672.01 387.972 672.01 389.388C672.01 390.804 671.442 392.162 670.432 393.163C669.421 394.164 668.05 394.727 666.621 394.727Z" fill="#E6E6E6"/>
</g>
<defs>
<filter id="filter0_d" x="0" y="0" width="693.766" height="576" filterUnits="userSpaceOnUse" color-interpolation-filters="sRGB">
<feFlood flood-opacity="0" result="BackgroundImageFix"/>
<feColorMatrix in="SourceAlpha" type="matrix" values="0 0 0 0 0 0 0 0 0 0 0 0 0 0 0 0 0 0 127 0"/>
<feOffset dx="4" dy="4"/>
<feGaussianBlur stdDeviation="2"/>
<feColorMatrix type="matrix" values="0 0 0 0 0 0 0 0 0 0 0 0 0 0 0 0 0 0 0.25 0"/>
<feBlend mode="normal" in2="BackgroundImageFix" result="effect1_dropShadow"/>
<feBlend mode="normal" in="SourceGraphic" in2="effect1_dropShadow" result="shape"/>
</filter>
</defs>
</svg>
