<svg width="285" height="329" viewBox="0 0 285 329" fill="none" xmlns="http://www.w3.org/2000/svg">
<path d="M65.7656 328.996L188.37 280.524C187.064 276.121 186.501 271.445 186.713 266.773C186.926 262.101 187.91 257.528 189.607 253.325C191.304 249.123 193.68 245.376 196.594 242.306C199.508 239.237 202.9 236.908 206.571 235.457C210.241 234.006 214.114 233.463 217.961 233.859C221.807 234.256 225.549 235.584 228.965 237.765C232.38 239.947 235.399 242.937 237.844 246.559C240.288 250.18 242.108 254.36 243.195 258.849L285 242.322L219.789 0.0164795L0.554565 86.69L65.7656 328.996Z" fill="#F2F2F2"/>
</svg>
