<svg width="303" height="358" viewBox="0 0 303 358" fill="none" xmlns="http://www.w3.org/2000/svg">
<path d="M202.768 0.337341L89.3718 74.7819C91.3109 78.8279 92.5601 83.3046 93.0456 87.9465C93.531 92.5885 93.2427 97.3014 92.1978 101.806C91.1529 106.31 89.3727 110.515 86.9626 114.17C84.5524 117.825 81.5614 120.857 78.1669 123.085C74.7723 125.314 71.0432 126.694 67.2005 127.144C63.3578 127.593 59.4797 127.104 55.796 125.704C52.1123 124.303 48.698 122.021 45.7553 118.993C42.8127 115.964 40.4016 112.25 38.6649 108.071L0 133.454L100.154 357.561L302.922 224.444L202.768 0.337341Z" fill="#F2F2F2"/>
</svg>
