<svg width="30" height="30" viewBox="0 0 30 30" fill="none" xmlns="http://www.w3.org/2000/svg">
<rect width="30" height="30" fill="white"/>
<path d="M15.002 0C10.7163 0 7.21289 3.50339 7.21289 7.78913C7.21289 12.0749 10.7163 15.5783 15.002 15.5783C19.2878 15.5783 22.7911 12.0749 22.7911 7.78913C22.7911 3.50339 19.2878 0 15.002 0Z" fill="black" fill-opacity="0.5"/>
<path d="M28.3695 21.8027C28.1654 21.2924 27.8933 20.8163 27.5872 20.3741C26.0225 18.0611 23.6076 16.5305 20.8865 16.1564C20.5464 16.1224 20.1723 16.1904 19.9001 16.3945C18.4716 17.4489 16.7709 17.9931 15.0022 17.9931C13.2334 17.9931 11.5328 17.4489 10.1042 16.3945C9.83205 16.1904 9.4579 16.0883 9.11779 16.1564C6.3967 16.5305 3.94774 18.0611 2.41714 20.3741C2.11102 20.8163 1.83889 21.3265 1.63485 21.8027C1.53283 22.0068 1.56681 22.2448 1.66883 22.4489C1.94097 22.9251 2.28107 23.4014 2.58719 23.8095C3.06336 24.4558 3.57359 25.034 4.15184 25.5782C4.62801 26.0543 5.17222 26.4965 5.71649 26.9387C8.40353 28.9456 11.6348 29.9999 14.9682 29.9999C18.3015 29.9999 21.5328 28.9455 24.2199 26.9387C24.7641 26.5306 25.3083 26.0543 25.7845 25.5782C26.3287 25.034 26.8729 24.4557 27.3492 23.8095C27.6893 23.3673 27.9955 22.9251 28.2675 22.4489C28.4375 22.2448 28.4715 22.0067 28.3695 21.8027Z" fill="black" fill-opacity="0.5"/>
</svg>
