<svg width="30" height="30" viewBox="0 0 30 30" fill="none" xmlns="http://www.w3.org/2000/svg">
<rect width="30" height="30" fill="white"/>
<path d="M15 9.375C11.8983 9.375 9.375 11.8983 9.375 15C9.375 18.1017 11.8983 20.625 15 20.625C18.1017 20.625 20.625 18.1017 20.625 15C20.625 11.8983 18.1017 9.375 15 9.375ZM14.0625 14.0625V13.125C14.0625 12.608 14.483 12.1875 15 12.1875C15.517 12.1875 15.9375 12.608 15.9375 13.125V14.0625C15.9375 14.5795 15.517 15 15 15C14.483 15 14.0625 14.5795 14.0625 14.0625ZM16.4062 15.9375C17.1816 15.9375 17.8125 16.5684 17.8125 17.3438V17.8125H12.1875V17.3438C12.1875 16.5684 12.8184 15.9375 13.5938 15.9375H16.4062ZM12.1997 18.75H17.8003C17.018 19.3359 16.0505 19.6875 15 19.6875C13.9495 19.6875 12.982 19.3359 12.1997 18.75ZM18.75 17.8003V17.3438C18.75 16.1189 17.8022 15.1219 16.6036 15.0202C16.7719 14.7389 16.875 14.4136 16.875 14.0625V13.125C16.875 12.0909 16.0341 11.25 15 11.25C13.9659 11.25 13.125 12.0909 13.125 13.125V14.0625C13.125 14.4136 13.2281 14.7389 13.3964 15.0202C12.1978 15.1219 11.25 16.1189 11.25 17.3438V17.8003C10.6641 17.018 10.3125 16.0505 10.3125 15C10.3125 12.4153 12.4153 10.3125 15 10.3125C17.5847 10.3125 19.6875 12.4153 19.6875 15C19.6875 16.0505 19.3359 17.018 18.75 17.8003Z" fill="black" fill-opacity="0.5"/>
<path d="M25.3125 19.2188C27.6389 19.2188 29.5312 17.3264 29.5312 15C29.5312 12.6741 27.6389 10.7812 25.3125 10.7812C25.2478 10.7812 25.185 10.7883 25.1213 10.7911L23.7061 8.31469C24.9459 7.57875 25.7812 6.23063 25.7812 4.6875C25.7812 2.36156 23.8889 0.46875 21.5625 0.46875C19.3945 0.46875 17.6053 2.11266 17.3714 4.21875H12.6286C12.3947 2.11266 10.6055 0.46875 8.4375 0.46875C6.11109 0.46875 4.21875 2.36156 4.21875 4.6875C4.21875 6.08437 4.90406 7.32141 5.95359 8.08969L4.40719 10.7953C2.21156 10.9406 0.46875 12.7683 0.46875 15C0.46875 17.2317 2.21156 19.0594 4.40719 19.2047L5.95312 21.9103C4.90406 22.6781 4.21875 23.9152 4.21875 25.3125C4.21875 27.6389 6.11109 29.5312 8.4375 29.5312C10.6055 29.5312 12.3947 27.8873 12.6286 25.7812H17.3714C17.6053 27.8873 19.3945 29.5312 21.5625 29.5312C23.8889 29.5312 25.7812 27.6389 25.7812 25.3125C25.7812 23.7694 24.9459 22.4208 23.7061 21.6853L25.1213 19.2089C25.185 19.2117 25.2478 19.2188 25.3125 19.2188ZM23.0208 17.3438H27.6047C27.0127 17.9227 26.2041 18.2812 25.313 18.2812C24.4219 18.2812 23.6128 17.9227 23.0208 17.3438ZM28.5938 15C28.5938 15.5034 28.4761 15.9792 28.2727 16.4062H27.6562V13.5938H26.7188V16.4062H25.7812V14.5312H24.8438V16.4062H23.9062V15.4688H22.9688V16.4062H22.3523C22.1489 15.9792 22.0312 15.5034 22.0312 15C22.0312 13.1906 23.5036 11.7188 25.3125 11.7188C27.1214 11.7188 28.5938 13.1906 28.5938 15ZM23.8542 7.03125C23.2622 7.61016 22.4536 7.96875 21.5625 7.96875C20.6714 7.96875 19.8623 7.61016 19.2708 7.03125H23.8542ZM21.5625 1.40625C23.3714 1.40625 24.8438 2.87812 24.8438 4.6875C24.8438 5.19141 24.7261 5.66672 24.5227 6.09375H23.9062V3.28125H22.9688V6.09375H22.0312V4.21875H21.0938V6.09375H20.1562V5.15625H19.2188V6.09375H18.6023C18.3989 5.66672 18.2812 5.19141 18.2812 4.6875C18.2812 2.87812 19.7536 1.40625 21.5625 1.40625ZM8.4375 1.40625C10.2464 1.40625 11.7188 2.87812 11.7188 4.6875C11.7188 5.19141 11.6011 5.66672 11.3977 6.09375H10.7812V3.28125H9.84375V6.09375H8.90625V4.21875H7.96875V6.09375H7.03125V5.15625H6.09375V6.09375H5.47734C5.27391 5.66672 5.15625 5.19141 5.15625 4.6875C5.15625 2.87812 6.62859 1.40625 8.4375 1.40625ZM10.7292 7.03125C10.1372 7.61016 9.32859 7.96875 8.4375 7.96875C7.54641 7.96875 6.73734 7.61016 6.14578 7.03125H10.7292ZM4.6875 11.7188C6.49641 11.7188 7.96875 13.1906 7.96875 15C7.96875 15.5034 7.85109 15.9792 7.64766 16.4062H7.03125V13.5938H6.09375V16.4062H5.15625V14.5312H4.21875V16.4062H3.28125V15.4688H2.34375V16.4062H1.72734C1.52391 15.9792 1.40625 15.5034 1.40625 15C1.40625 13.1906 2.87859 11.7188 4.6875 11.7188ZM4.6875 18.2812C3.79594 18.2812 2.98781 17.9227 2.39578 17.3438H6.97969C6.38719 17.9227 5.57906 18.2812 4.6875 18.2812ZM6.14578 27.6562H10.7297C10.1377 28.2352 9.32906 28.5938 8.43797 28.5938C7.54687 28.5938 6.73781 28.2352 6.14578 27.6562ZM11.3977 26.7188H10.7812V23.9062H9.84375V26.7188H8.90625V24.8438H7.96875V26.7188H7.03125V25.7812H6.09375V26.7188H5.47734C5.27391 26.2917 5.15625 25.8159 5.15625 25.3125C5.15625 23.5036 6.62859 22.0312 8.4375 22.0312C10.2464 22.0312 11.7188 23.5036 11.7188 25.3125C11.7188 25.8159 11.6011 26.2917 11.3977 26.7188ZM19.2708 27.6562H23.8547C23.2627 28.2352 22.4541 28.5938 21.563 28.5938C20.6719 28.5938 19.8628 28.2352 19.2708 27.6562ZM24.8438 25.3125C24.8438 25.8159 24.7261 26.2917 24.5227 26.7188H23.9062V23.9062H22.9688V26.7188H22.0312V24.8438H21.0938V26.7188H20.1562V25.7812H19.2188V26.7188H18.6023C18.3989 26.2917 18.2812 25.8159 18.2812 25.3125C18.2812 23.5036 19.7536 22.0312 21.5625 22.0312C23.3714 22.0312 24.8438 23.5036 24.8438 25.3125ZM22.8492 21.2958C22.4433 21.1655 22.0111 21.0938 21.5625 21.0938C19.3945 21.0938 17.6053 22.7377 17.3714 24.8438H12.6286C12.3947 22.7377 10.6055 21.0938 8.4375 21.0938C7.84359 21.0938 7.27828 21.2184 6.765 21.4411L5.45344 19.1456C7.41469 18.7838 8.90625 17.0644 8.90625 15C8.90625 12.9356 7.41469 11.2163 5.45344 10.8544L6.765 8.55891C7.27828 8.78156 7.84359 8.90625 8.4375 8.90625C10.6055 8.90625 12.3947 7.26234 12.6286 5.15625H17.3714C17.6053 7.26234 19.3945 8.90625 21.5625 8.90625C22.0111 8.90625 22.4433 8.83453 22.8492 8.70422L24.1336 10.9523C22.38 11.4637 21.0938 13.0833 21.0938 15C21.0938 16.9167 22.38 18.5363 24.1336 19.0481L22.8492 21.2958Z" fill="black" fill-opacity="0.5"/>
</svg>
