<svg width="130" height="150" viewBox="0 0 130 150" fill="none" xmlns="http://www.w3.org/2000/svg">
<rect width="130" height="150" rx="10" fill="#50C28A" fill-opacity="0.5"/>
<path d="M22.3527 74.4118C22.3527 68.5635 28.2777 63.8235 35.588 63.8235C42.8984 63.8235 48.8233 68.5635 48.8233 74.4118C48.8233 80.2599 42.8984 85.0002 35.588 85.0002C28.2777 85.0002 22.3527 80.2599 22.3527 74.4118ZM94.4116 85.0002C101.722 85.0002 107.647 80.26 107.647 74.4118C107.647 68.5635 101.722 63.8235 94.4116 63.8235C87.1012 63.8235 81.1763 68.5635 81.1763 74.4118C81.1763 80.2599 87.1012 85.0002 94.4116 85.0002ZM100.294 88.5292H88.5292C80.407 88.5292 73.8233 93.7965 73.8233 100.294V106.981C73.8233 107.726 73.3821 108.427 72.6352 108.87L65.5969 112.685C65.0852 112.962 64.4103 112.954 63.9103 112.663L57.3661 108.87C56.6176 108.426 56.1765 107.726 56.1765 106.981V100.294C56.1765 93.7965 49.5926 88.5292 41.4706 88.5292H29.7059C21.5839 88.5292 15 93.7965 15 100.294V115.624C15 117.228 16.6265 118.529 18.6324 118.529H18.7206C20.7264 118.529 22.3529 117.228 22.3529 115.624V125H48.8235V111.465L56.1765 115.6L61.7426 118.561C63.716 119.611 66.284 119.611 68.2576 118.561L73.8235 115.6L81.1765 111.465V125H107.647V115.624C107.647 117.228 109.274 118.529 111.279 118.529H111.368C113.373 118.529 115 117.228 115 115.624V100.294C115 93.7967 108.416 88.5292 100.294 88.5292ZM94.4116 41.4706C94.4116 50.5671 80.585 57.9412 63.5292 57.9412C61.7057 57.9412 59.9278 57.8401 58.191 57.6789C53.7984 61.4683 45.1468 62.0588 45.1468 62.0588C46.6481 59.8483 47.6291 57.7154 47.9585 55.6777C38.8086 52.8189 32.6468 47.5343 32.6468 41.4706C32.6468 32.3742 46.4732 25 63.5292 25C80.585 25 94.4116 32.3742 94.4116 41.4706ZM55.441 41.4706C55.441 39.5211 53.466 37.9412 51.0292 37.9412C48.5923 37.9412 46.6174 39.5213 46.6174 41.4706C46.6174 43.4199 48.5923 45 51.0292 45C53.466 45 55.441 43.4201 55.441 41.4706ZM68.6763 41.4706C68.6763 39.5211 66.7011 37.9412 64.2645 37.9412C61.8276 37.9412 59.8527 39.5211 59.8527 41.4706C59.8527 43.4201 61.8276 45 64.2645 45C66.7011 45 68.6763 43.4201 68.6763 41.4706ZM81.9116 41.4706C81.9116 39.5211 79.9364 37.9412 77.4998 37.9412C75.0631 37.9412 73.088 39.5213 73.088 41.4706C73.088 43.4199 75.0629 45 77.4996 45C79.9362 45 81.9116 43.4201 81.9116 41.4706Z" fill="#50C28A"/>
</svg>
