<svg width="130" height="150" viewBox="0 0 130 150" fill="none" xmlns="http://www.w3.org/2000/svg">
<rect width="130" height="150" rx="10" fill="#DAA520" fill-opacity="0.5"/>
<path d="M105.658 38.9654H87.6926V33.0895C87.6926 32.281 87.035 31.6255 86.2233 31.6255C85.4117 31.6255 84.754 32.281 84.754 33.0895V38.9654H78.6678C77.8561 38.9654 77.1985 39.6209 77.1985 40.4295C77.1985 41.238 77.8561 41.8935 78.6678 41.8935H84.754V48.0929H83.6513C82.1114 48.0929 80.8586 49.3412 80.8586 50.8754V68.1109C80.8586 69.6452 82.1114 70.8934 83.6513 70.8934H84.754V82.5083C84.754 83.3169 85.4117 83.9724 86.2233 83.9724C87.035 83.9724 87.6926 83.3169 87.6926 82.5083V70.8934H88.7954C90.3351 70.8934 91.5879 69.645 91.5879 68.1109V50.8754C91.5879 49.341 90.3351 48.0929 88.7954 48.0929H87.6926V41.8935H105.658C109.189 41.8935 112.061 44.7556 112.061 48.2736V98.3821H17.9386V48.2738C17.9386 44.7558 20.811 41.8937 24.3417 41.8937H50.098V44.751H48.9952C47.4554 44.751 46.2028 45.9993 46.2028 47.5334V64.769C46.2028 66.3033 47.4556 67.5514 48.9952 67.5514H50.098V80.4883C50.098 81.2969 50.7559 81.9524 51.5673 81.9524C52.3788 81.9524 53.0366 81.2969 53.0366 80.4883V67.5514H54.1394C55.6792 67.5514 56.9318 66.3031 56.9318 64.769V47.5334C56.9318 45.9991 55.679 44.751 54.1394 44.751H53.0366V41.8935H59.1229C59.9343 41.8935 60.5922 41.238 60.5922 40.4295C60.5922 39.6209 59.9343 38.9654 59.1229 38.9654H53.0366V38.2424C53.0366 37.4338 52.3788 36.7783 51.5673 36.7783C50.7559 36.7783 50.098 37.4338 50.098 38.2424V38.9654H24.3417C19.1907 38.9654 15 43.1411 15 48.2736V99.8461C15 104.979 19.1907 109.154 24.3417 109.154H46.7082V116.598L41.9725 122.072H40.0928C39.2814 122.072 38.6235 122.727 38.6235 123.536C38.6235 124.344 39.2814 125 40.0928 125H89.7716C90.5833 125 91.2409 124.344 91.2409 123.536C91.2409 122.727 90.5833 122.072 89.7716 122.072H88.0273L83.2916 116.598V109.154H105.658C110.809 109.154 115 104.979 115 99.8461V48.2738C115 43.1413 110.809 38.9654 105.658 38.9654ZM88.6493 67.9656H83.7974V51.0212H88.6495V67.9656H88.6493ZM53.9932 64.6233H49.1412V47.679H53.9932V64.6233ZM105.658 106.226H75.9214C75.1097 106.226 74.452 106.882 74.452 107.69C74.452 108.499 75.1097 109.154 75.9214 109.154H80.353V115.678H76.693C75.8814 115.678 75.2237 116.334 75.2237 117.142C75.2237 117.951 75.8814 118.606 76.693 118.606H81.1489L84.1473 122.072H45.8525L48.8509 118.606H53.3068C54.1182 118.606 54.7761 117.951 54.7761 117.142C54.7761 116.334 54.1182 115.678 53.3068 115.678H49.6468V109.154H69.6596C70.4712 109.154 71.1289 108.499 71.1289 107.69C71.1289 106.882 70.4712 106.226 69.6596 106.226H24.3417C21.3166 106.226 18.7767 104.125 18.1106 101.31H111.889C111.223 104.125 108.683 106.226 105.658 106.226Z" fill="#DAA520"/>
<path d="M30.3438 67.7429C29.5324 67.7429 28.8745 68.3984 28.8745 69.2069V72.7414C28.8745 74.2757 30.1271 75.5238 31.667 75.5238H32.7697V83.3205C32.7697 84.1291 33.4276 84.7846 34.239 84.7846C35.0505 84.7846 35.7084 84.1291 35.7084 83.3205V75.5238H36.8111C38.3509 75.5238 39.6036 74.2757 39.6036 72.7414V55.5058C39.6036 53.9715 38.3507 52.7232 36.8111 52.7232H35.7084V50.3815C35.7084 49.5729 35.0505 48.9174 34.239 48.9174C33.4276 48.9174 32.7697 49.5729 32.7697 50.3815V52.7232H31.667C30.1271 52.7232 28.8745 53.9715 28.8745 55.5058V62.9678C28.8745 63.7763 29.5324 64.4318 30.3438 64.4318C31.1553 64.4318 31.8131 63.7763 31.8131 62.9678V55.6514H34.2373H34.2392C34.2392 55.6514 34.2404 55.6514 34.2412 55.6514H36.6654V72.5959H31.8131V69.2071C31.8131 68.3984 31.1553 67.7429 30.3438 67.7429Z" fill="#DAA520"/>
<path d="M66.3231 64.6544H67.4261V72.4509C67.4261 73.2594 68.0837 73.9149 68.8954 73.9149C69.707 73.9149 70.3647 73.2594 70.3647 72.4509V64.6544H71.4674C73.0071 64.6544 74.2599 63.406 74.2599 61.8717V50.3883C74.2599 49.5798 73.6022 48.9243 72.7906 48.9243C71.979 48.9243 71.3213 49.5798 71.3213 50.3883V61.7263H66.4693V35.2167H71.3213V44.1491C71.3213 44.9577 71.979 45.6132 72.7906 45.6132C73.6022 45.6132 74.2599 44.9577 74.2599 44.1491V35.0711C74.2599 33.5369 73.0071 32.2886 71.4674 32.2886H70.3647V26.464C70.3647 25.6555 69.707 25 68.8954 25C68.0837 25 67.4261 25.6555 67.4261 26.464V32.2886H66.3231C64.7833 32.2886 63.5306 33.5369 63.5306 35.0711V61.8717C63.5306 63.4062 64.7833 64.6544 66.3231 64.6544Z" fill="#DAA520"/>
<path d="M94.7026 65.1377C94.968 65.6284 95.4742 65.9072 95.9971 65.9072C96.2324 65.9072 96.4714 65.8506 96.6932 65.7315L103.461 62.0954L102.974 63.3685C102.685 64.1242 103.066 64.97 103.824 65.2579C103.997 65.3231 104.173 65.3542 104.347 65.3542C104.939 65.3542 105.497 64.995 105.721 64.4109L107.375 60.084C107.664 59.3283 107.283 58.4825 106.525 58.1946L101.916 56.445C101.158 56.1572 100.308 56.5363 100.019 57.292C99.7305 58.0476 100.111 58.8934 100.87 59.1814L101.938 59.587L95.2985 63.1542C94.5842 63.538 94.3174 64.426 94.7026 65.1377Z" fill="#DAA520"/>
<path d="M23.6878 93.7438C23.9264 94.2993 24.4689 94.6322 25.0391 94.6322C25.2319 94.6322 25.428 94.5941 25.6167 94.5137L44.5762 86.4284L46.2992 90.9266C46.4501 91.3203 46.7637 91.6301 47.16 91.7769C47.5562 91.9235 47.997 91.8932 48.3692 91.6931L79.6916 74.8654C80.4059 74.4816 80.6728 73.5936 80.2876 72.8819C79.9026 72.1704 79.0117 71.9043 78.297 72.2881L48.4477 88.3243L46.7764 83.9608C46.6338 83.5886 46.3453 83.2903 45.9771 83.1349C45.609 82.9793 45.1933 82.9803 44.8256 83.1369L24.4604 91.8216C23.7146 92.14 23.3686 93.0004 23.6878 93.7438Z" fill="#DAA520"/>
</svg>
